<?xml version="1.0" encoding="UTF-8"?>
<svg id="Ebene_1" xmlns="http://www.w3.org/2000/svg" xmlns:xlink="http://www.w3.org/1999/xlink" version="1.1" viewBox="0 0 1366 768">
  <!-- Generator: Adobe Illustrator 30.2.1, SVG Export Plug-In . SVG Version: 2.1.1 Build 1)  -->
  <defs>
    <style>
      .st0, .st1, .st2, .st3, .st4, .st5, .st6, .st7, .st8, .st9, .st10, .st11, .st12, .st13, .st14, .st15, .st16, .st17, .st18, .st19, .st20, .st21, .st22, .st23, .st24, .st25, .st26, .st27, .st28, .st29, .st30, .st31, .st32, .st33, .st34, .st35, .st36, .st37, .st38, .st39, .st40, .st41, .st42, .st43, .st44, .st45, .st46, .st47, .st48, .st49, .st50, .st51, .st52, .st53, .st54, .st55, .st56, .st57, .st58, .st59, .st60, .st61, .st62, .st63, .st64, .st65, .st66, .st67, .st68, .st69, .st70, .st71, .st72, .st73, .st74, .st75, .st76, .st77, .st78, .st79, .st80, .st81, .st82 {
        fill: none;
      }

      .st1 {
        stroke-dasharray: .18 6.19;
      }

      .st1, .st2, .st3, .st4, .st5, .st6, .st7, .st8, .st9, .st10, .st11, .st12, .st13, .st14, .st15, .st16, .st17, .st18, .st19, .st20, .st21, .st22, .st23, .st24, .st25, .st26, .st27, .st28, .st29, .st30, .st31, .st32, .st33, .st34, .st35, .st36, .st37, .st38, .st39, .st40, .st41, .st42, .st43, .st44, .st45, .st46, .st47, .st48, .st49, .st50, .st51, .st52, .st53, .st54, .st55, .st56, .st57, .st58, .st59, .st60, .st61, .st62, .st63, .st64, .st65, .st66, .st67, .st68, .st69, .st70, .st71, .st72, .st73, .st74, .st75, .st76, .st77, .st78, .st79, .st80, .st81, .st82 {
        stroke: #2f2912;
        stroke-linecap: round;
        stroke-linejoin: round;
      }

      .st1, .st16, .st53, .st72, .st79 {
        stroke-width: .37px;
      }

      .st2 {
        stroke-dasharray: .05 5.42;
      }

      .st2, .st36, .st51, .st82 {
        stroke-width: 1.19px;
      }

      .st3 {
        stroke-dasharray: .16 5.44;
      }

      .st3, .st15, .st42, .st76 {
        stroke-width: 1.33px;
      }

      .st4 {
        stroke-dasharray: .25 5.72;
      }

      .st4, .st29, .st50, .st55, .st73 {
        stroke-width: 1.05px;
      }

      .st5 {
        stroke-dasharray: .19 5.23;
      }

      .st5, .st7, .st38, .st41, .st47, .st80 {
        stroke-width: 1.6px;
      }

      .st6 {
        stroke-dasharray: .17 5.85;
      }

      .st6, .st14, .st26, .st37, .st49 {
        stroke-width: .78px;
      }

      .st7 {
        stroke-dasharray: .09 5.13;
      }

      .st8 {
        stroke-dasharray: .2 5.15;
      }

      .st8, .st11, .st48 {
        stroke-width: 1.73px;
      }

      .st9 {
        stroke-dasharray: .22 5.06;
      }

      .st9, .st18, .st74 {
        stroke-width: 1.87px;
      }

      .st10 {
        stroke-dasharray: .16 5.35;
      }

      .st10, .st25, .st27, .st43, .st66, .st70 {
        stroke-width: 1.46px;
      }

      .st11 {
        stroke-dasharray: .2 5.15;
      }

      .st12 {
        stroke-dasharray: 0 4.22;
      }

      .st12, .st34, .st35, .st64 {
        stroke-width: 2.69px;
      }

      .st13 {
        stroke-dasharray: 0 4.01;
      }

      .st13, .st61 {
        stroke-width: 2.96px;
      }

      .st14 {
        stroke-dasharray: .26 5.94;
      }

      .st15 {
        stroke-dasharray: .05 5.33;
      }

      .st16 {
        stroke-dasharray: .18 6.19;
      }

      .st17 {
        stroke-dasharray: .11 4.53;
      }

      .st17, .st60 {
        stroke-width: 2.42px;
      }

      .st18 {
        stroke-dasharray: .21 5.06;
      }

      .st19 {
        stroke-dasharray: .07 4.6;
      }

      .st19, .st30, .st71 {
        stroke-width: 2.28px;
      }

      .st20 {
        stroke-dasharray: .02 4.75;
      }

      .st20, .st32, .st67, .st68 {
        stroke-width: 2.01px;
      }

      .st21 {
        stroke-dasharray: .05 5.95;
      }

      .st21, .st22, .st39, .st40, .st52, .st81 {
        stroke-width: .51px;
      }

      .st22 {
        stroke-dasharray: .18 6.07;
      }

      .st23 {
        stroke-dasharray: .14 4.46;
      }

      .st23, .st62, .st65 {
        stroke-width: 2.55px;
      }

      .st24 {
        stroke-dasharray: .05 5.62;
      }

      .st24, .st44, .st45, .st58, .st59, .st69 {
        stroke-width: .92px;
      }

      .st25 {
        stroke-dasharray: .24 5.44;
      }

      .st83 {
        clip-path: url(#clippath-1);
      }

      .st84 {
        clip-path: url(#clippath-3);
      }

      .st85 {
        clip-path: url(#clippath-2);
      }

      .st26 {
        stroke-dasharray: .05 5.73;
      }

      .st27 {
        stroke-dasharray: .16 5.35;
      }

      .st28 {
        stroke-dasharray: .05 5.84;
      }

      .st28, .st33, .st54, .st78 {
        stroke-width: .64px;
      }

      .st29 {
        stroke-dasharray: .17 5.64;
      }

      .st31, .st56, .st75 {
        stroke-width: 2.14px;
      }

      .st33 {
        stroke-dasharray: .17 5.96;
      }

      .st34 {
        stroke-dasharray: 0 4.22;
      }

      .st35 {
        stroke-dasharray: 0 4.22;
      }

      .st36 {
        stroke-dasharray: .16 5.54;
      }

      .st37 {
        stroke-dasharray: .17 5.85;
      }

      .st38 {
        stroke-dasharray: .19 5.23;
      }

      .st39 {
        stroke-dasharray: .27 6.17;
      }

      .st40 {
        stroke-dasharray: .18 6.07;
      }

      .st41 {
        stroke-dasharray: .19 5.23;
      }

      .st44 {
        stroke-dasharray: .17 5.74;
      }

      .st46 {
        stroke-dasharray: .05 4.16;
      }

      .st46, .st57, .st63, .st77 {
        stroke-width: 2.83px;
      }

      .st55 {
        stroke-dasharray: .17 5.64;
      }

      .st56 {
        stroke-dasharray: .04 4.67;
      }

      .st57 {
        stroke-dasharray: .05 4.16;
      }

      .st58 {
        stroke-dasharray: .17 5.74;
      }

      .st59 {
        stroke-dasharray: .17 5.74;
      }

      .st62 {
        stroke-dasharray: .14 4.46;
      }

      .st66 {
        stroke-dasharray: .16 5.35;
      }

      .st67 {
        stroke-dasharray: .02 4.76;
      }

      .st68 {
        stroke-dasharray: .02 4.75;
      }

      .st69 {
        stroke-dasharray: .26 5.83;
      }

      .st70 {
        stroke-dasharray: .05 5.24;
      }

      .st71 {
        stroke-dasharray: .07 4.6;
      }

      .st72 {
        stroke-dasharray: .28 6.29;
      }

      .st73 {
        stroke-dasharray: .05 5.52;
      }

      .st75 {
        stroke-dasharray: .04 4.68;
      }

      .st76 {
        stroke-dasharray: .25 5.53;
      }

      .st77 {
        stroke-dasharray: .06 4.16;
      }

      .st86 {
        clip-path: url(#clippath);
      }

      .st78 {
        stroke-dasharray: .27 6.05;
      }

      .st79 {
        stroke-dasharray: .05 6.07;
      }

      .st80 {
        stroke-dasharray: .03 5.06;
      }

      .st81 {
        stroke-dasharray: .18 6.07;
      }

      .st82 {
        stroke-dasharray: .25 5.62;
      }
    </style>
    <clipPath id="clippath">
      <rect class="st0" x="-.53" y="-.95" width="1367.48" height="770.99"/>
    </clipPath>
    <clipPath id="clippath-1">
      <rect class="st0" x="-1.71" y="-.92" width="1367.42" height="770.96"/>
    </clipPath>
    <clipPath id="clippath-2">
      <rect class="st0" x="-1.71" y="-.92" width="1367.42" height="770.96"/>
    </clipPath>
    <clipPath id="clippath-3">
      <rect class="st0" x="-1.71" y="-.92" width="1367.42" height="770.96"/>
    </clipPath>
  </defs>
  <g class="st86">
    <line class="st13" x1="2.77" y1="8.66" x2="2.77" y2="763.94"/>
    <path class="st61" d="M2.77,767.45h0M2.77,1.64h0"/>
    <line class="st13" x1="1363.64" y1="760.44" x2="1363.64" y2="5.15"/>
    <path class="st61" d="M1363.64,1.65h0M1363.64,767.46h0"/>
    <path class="st46" d="M26.17,8.96c-.42,39.55-4.27,42.95-4.48,84.72"/>
    <path class="st46" d="M21.72,104.68c.42,39.54,4.27,42.94,4.48,84.7"/>
    <path class="st57" d="M26.17,200.4c-.42,39.55-4.27,42.95-4.48,84.72"/>
    <path class="st57" d="M21.72,296.12c.42,39.55,4.27,42.95,4.48,84.72"/>
    <path class="st57" d="M26.17,391.84c-.42,39.55-4.27,42.95-4.48,84.72"/>
    <path class="st57" d="M21.72,487.57c.42,39.55,4.27,42.95,4.48,84.72"/>
    <path class="st77" d="M26.17,583.3c-.42,39.55-4.27,42.96-4.48,84.73"/>
    <path class="st77" d="M21.72,679.04c.42,39.55,4.27,42.96,4.48,84.73"/>
    <path class="st63" d="M26.21,767.41v.05M21.68,671.67v.1M26.21,575.93v.1M21.68,480.2v.1M26.21,384.47v.05s0,.05,0,.05M21.68,288.75v.1M26.21,193.03v.05s0,.05,0,.05M21.68,97.31v.05s0,.05,0,.05M26.21,1.64v.05"/>
    <path class="st46" d="M1340.24,760.13c.42-39.55,4.27-42.95,4.48-84.72"/>
    <path class="st46" d="M1344.7,664.41c-.42-39.54-4.27-42.94-4.48-84.7"/>
    <path class="st57" d="M1340.24,568.7c.42-39.55,4.27-42.95,4.48-84.72"/>
    <path class="st57" d="M1344.7,472.98c-.42-39.55-4.27-42.95-4.48-84.72"/>
    <path class="st57" d="M1340.24,377.25c.42-39.55,4.27-42.95,4.48-84.72"/>
    <path class="st57" d="M1344.7,281.52c-.42-39.55-4.27-42.95-4.48-84.72"/>
    <path class="st77" d="M1340.24,185.79c.42-39.55,4.27-42.96,4.48-84.73"/>
    <path class="st77" d="M1344.7,90.06c-.42-39.55-4.27-42.96-4.48-84.73"/>
    <path class="st63" d="M1340.21,1.69v-.05M1344.73,97.43v-.05s0-.05,0-.05M1340.21,193.17v-.05s0-.05,0-.05M1344.73,288.89v-.1M1340.21,384.62v-.05s0-.05,0-.05M1344.73,480.35v-.05s0-.05,0-.05M1340.21,576.07v-.1M1344.73,671.78v-.05s0-.05,0-.05M1340.21,767.46v-.05"/>
    <path class="st35" d="M49.57,9.02c-.85,39.48-8.53,42.91-8.96,84.64"/>
    <path class="st12" d="M40.67,104.74c.85,39.48,8.53,42.9,8.96,84.63"/>
    <path class="st35" d="M49.57,200.46c-.85,39.48-8.53,42.91-8.96,84.64"/>
    <path class="st35" d="M40.67,296.18c.85,39.48,8.53,42.91,8.96,84.65"/>
    <path class="st35" d="M49.57,391.91c-.85,39.49-8.53,42.91-8.96,84.65"/>
    <path class="st35" d="M40.67,487.63c.85,39.48,8.53,42.91,8.96,84.65"/>
    <path class="st34" d="M49.57,583.36c-.85,39.49-8.53,42.91-8.96,84.66"/>
    <path class="st34" d="M40.67,679.1c.85,39.49,8.53,42.91,8.96,84.66"/>
    <path class="st64" d="M49.64,767.45h0M40.59,671.71h0v.02M49.64,575.97h0v.02M40.59,480.24h0v.02M49.64,384.51h0v.02M40.59,288.79h0v.02M49.64,193.07h0v.02M40.59,97.35h0v.02M49.64,1.64h0"/>
    <path class="st35" d="M1316.85,760.07c.85-39.48,8.53-42.91,8.96-84.64"/>
    <path class="st12" d="M1325.75,664.35c-.85-39.48-8.53-42.9-8.96-84.63"/>
    <path class="st35" d="M1316.85,568.64c.85-39.48,8.53-42.91,8.96-84.64"/>
    <path class="st35" d="M1325.75,472.91c-.85-39.48-8.53-42.91-8.96-84.65"/>
    <path class="st35" d="M1316.85,377.19c.85-39.49,8.53-42.91,8.96-84.65"/>
    <path class="st35" d="M1325.75,281.46c-.85-39.48-8.53-42.91-8.96-84.65"/>
    <path class="st34" d="M1316.85,185.73c.85-39.49,8.53-42.91,8.96-84.66"/>
    <path class="st34" d="M1325.75,89.99c-.85-39.49-8.53-42.91-8.96-84.66"/>
    <path class="st64" d="M1316.77,1.65h0M1325.83,97.39h0v-.02M1316.77,193.13h0v-.02M1325.83,288.85h0v-.02M1316.77,384.58h0v-.02M1325.83,480.31h0v-.02M1316.77,576.03h0v-.02M1325.83,671.74h0v-.02M1316.77,767.46h0"/>
    <path class="st62" d="M72.95,9.56c-1.37,38.88-12.72,42.54-13.41,83.78"/>
    <path class="st62" d="M59.63,105.28c1.37,38.87,12.72,42.54,13.41,83.77"/>
    <path class="st62" d="M72.95,200.99c-1.37,38.88-12.72,42.54-13.41,83.78"/>
    <path class="st62" d="M59.63,296.72c1.37,38.88,12.72,42.54,13.41,83.78"/>
    <path class="st62" d="M72.95,392.44c-1.37,38.88-12.72,42.55-13.41,83.79"/>
    <path class="st62" d="M59.63,488.17c1.37,38.88,12.72,42.54,13.41,83.78"/>
    <path class="st23" d="M72.95,583.9c-1.37,38.88-12.72,42.55-13.41,83.79"/>
    <path class="st23" d="M59.63,679.64c1.37,38.88,12.72,42.55,13.41,83.79"/>
    <path class="st65" d="M73.08,767.33v.13M59.5,671.59v.25M73.08,575.85v.25M59.5,480.13v.25M73.08,384.4v.25M59.5,288.67v.25M73.08,192.95v.25M59.5,97.24v.25M73.08,1.64v.13"/>
    <path class="st62" d="M1293.47,759.54c1.37-38.88,12.72-42.54,13.41-83.78"/>
    <path class="st62" d="M1306.78,663.81c-1.37-38.87-12.72-42.54-13.41-83.77"/>
    <path class="st62" d="M1293.47,568.1c1.37-38.88,12.72-42.54,13.41-83.78"/>
    <path class="st62" d="M1306.78,472.38c-1.37-38.88-12.72-42.54-13.41-83.78"/>
    <path class="st62" d="M1293.47,376.65c1.37-38.88,12.72-42.55,13.41-83.79"/>
    <path class="st62" d="M1306.78,280.92c-1.37-38.88-12.72-42.54-13.41-83.78"/>
    <path class="st23" d="M1293.47,185.2c1.37-38.88,12.72-42.55,13.41-83.79"/>
    <path class="st23" d="M1306.78,89.46c-1.37-38.88-12.72-42.55-13.41-83.79"/>
    <path class="st65" d="M1293.34,1.77v-.13M1306.92,97.5v-.25M1293.34,193.24v-.12s0-.13,0-.13M1306.92,288.97v-.25M1293.34,384.7v-.25M1306.92,480.42v-.25M1293.34,576.15v-.25M1306.92,671.86v-.25M1293.34,767.46v-.13"/>
    <path class="st17" d="M96.33,9.64c-1.84,38.79-16.95,42.49-17.88,83.67"/>
    <path class="st17" d="M78.59,105.37c1.84,38.78,16.95,42.48,17.88,83.66"/>
    <path class="st17" d="M96.33,201.08c-1.84,38.79-16.95,42.49-17.88,83.67"/>
    <path class="st17" d="M78.59,296.8c1.84,38.79,16.95,42.49,17.88,83.67"/>
    <path class="st17" d="M96.33,392.53c-1.84,38.79-16.95,42.49-17.88,83.67"/>
    <path class="st17" d="M78.59,488.26c1.84,38.79,16.95,42.49,17.88,83.67"/>
    <path class="st17" d="M96.33,583.98c-1.84,38.8-16.95,42.49-17.88,83.68"/>
    <path class="st17" d="M78.59,679.72c1.84,38.8,16.95,42.49,17.88,83.68"/>
    <path class="st60" d="M96.52,767.36v.09M78.41,671.62v.19M96.52,575.88v.19M78.41,480.16v.18M96.52,384.43v.19M78.41,288.7v.19M96.52,192.98v.18M78.41,97.27v.18M96.52,1.64v.09"/>
    <path class="st17" d="M1270.08,759.45c1.84-38.79,16.95-42.49,17.88-83.67"/>
    <path class="st17" d="M1287.83,663.73c-1.84-38.78-16.95-42.48-17.88-83.66"/>
    <path class="st17" d="M1270.08,568.02c1.84-38.79,16.95-42.49,17.88-83.67"/>
    <path class="st17" d="M1287.83,472.29c-1.84-38.79-16.95-42.49-17.88-83.67"/>
    <path class="st17" d="M1270.08,376.57c1.84-38.79,16.95-42.49,17.88-83.67"/>
    <path class="st17" d="M1287.83,280.84c-1.84-38.79-16.95-42.49-17.88-83.67"/>
    <path class="st17" d="M1270.08,185.11c1.84-38.8,16.95-42.49,17.88-83.68"/>
    <path class="st17" d="M1287.83,89.37c-1.84-38.8-16.95-42.49-17.88-83.68"/>
    <path class="st60" d="M1269.9,1.73v-.09M1288.01,97.47v-.19M1269.9,193.21v-.19M1288.01,288.94v-.09s0-.09,0-.09M1269.9,384.67v-.09s0-.09,0-.09M1288.01,480.39v-.19M1269.9,576.11v-.18M1288.01,671.83v-.18M1269.9,767.46v-.09"/>
    <path class="st19" d="M119.72,9.74c-2.32,38.69-21.17,42.42-22.35,83.54"/>
    <path class="st71" d="M97.55,105.46c2.32,38.68,21.17,42.42,22.35,83.53"/>
    <path class="st19" d="M119.72,201.17c-2.32,38.69-21.17,42.42-22.35,83.54"/>
    <path class="st19" d="M97.55,296.9c2.32,38.69,21.17,42.42,22.35,83.54"/>
    <path class="st19" d="M119.72,392.62c-2.32,38.69-21.17,42.42-22.35,83.54"/>
    <path class="st19" d="M97.55,488.35c2.32,38.69,21.17,42.42,22.35,83.54"/>
    <path class="st19" d="M119.72,584.08c-2.32,38.7-21.17,42.43-22.35,83.55"/>
    <path class="st19" d="M97.55,679.82c2.32,38.7,21.17,42.43,22.35,83.55"/>
    <path class="st30" d="M119.95,767.39v.06M97.32,671.65v.13M119.95,575.91v.13M97.32,480.19v.13M119.95,384.46v.13M97.32,288.73v.13M119.95,193.01v.13M97.32,97.3v.13M119.95,1.64v.06"/>
    <path class="st19" d="M1246.7,759.35c2.32-38.69,21.17-42.42,22.35-83.54"/>
    <path class="st71" d="M1268.87,663.63c-2.32-38.68-21.17-42.42-22.35-83.53"/>
    <path class="st19" d="M1246.7,567.92c2.32-38.69,21.17-42.42,22.35-83.54"/>
    <path class="st19" d="M1268.87,472.2c-2.32-38.69-21.17-42.42-22.35-83.54"/>
    <path class="st19" d="M1246.7,376.47c2.32-38.69,21.17-42.42,22.35-83.54"/>
    <path class="st19" d="M1268.87,280.74c-2.32-38.69-21.17-42.42-22.35-83.54"/>
    <path class="st19" d="M1246.7,185.02c2.32-38.7,21.17-42.43,22.35-83.55"/>
    <path class="st19" d="M1268.87,89.28c-2.32-38.7-21.17-42.43-22.35-83.55"/>
    <path class="st30" d="M1246.46,1.7v-.06M1269.1,97.44v-.06s0-.06,0-.06M1246.46,193.18v-.06s0-.06,0-.06M1269.1,288.91v-.13M1246.46,384.64v-.06s0-.06,0-.06M1269.1,480.36v-.13M1246.46,576.09v-.13M1269.1,671.8v-.06s0-.06,0-.06M1246.46,767.46v-.06"/>
    <path class="st75" d="M143.1,9.85c-2.82,38.58-25.39,42.35-26.8,83.39"/>
    <path class="st56" d="M116.51,105.57c2.82,38.57,25.39,42.35,26.8,83.38"/>
    <path class="st75" d="M143.1,201.28c-2.82,38.58-25.39,42.35-26.8,83.39"/>
    <path class="st75" d="M116.51,297c2.82,38.58,25.39,42.35,26.8,83.39"/>
    <path class="st75" d="M143.1,392.73c-2.82,38.58-25.39,42.35-26.8,83.4"/>
    <path class="st75" d="M116.51,488.46c2.82,38.58,25.39,42.35,26.8,83.4"/>
    <path class="st75" d="M143.1,584.18c-2.82,38.58-25.39,42.36-26.8,83.41"/>
    <path class="st75" d="M116.51,679.92c2.82,38.58,25.39,42.36,26.8,83.41"/>
    <path class="st31" d="M143.39,767.42v.04M116.22,671.68v.08M143.39,575.94v.08M116.22,480.21v.08M143.39,384.48v.08M116.22,288.76v.08M143.39,193.04v.08M116.22,97.32v.04s0,.04,0,.04M143.39,1.64v.04"/>
    <path class="st75" d="M1223.32,759.25c2.82-38.58,25.39-42.35,26.8-83.39"/>
    <path class="st56" d="M1249.9,663.53c-2.82-38.57-25.39-42.35-26.8-83.38"/>
    <path class="st75" d="M1223.32,567.81c2.82-38.58,25.39-42.35,26.8-83.39"/>
    <path class="st75" d="M1249.9,472.09c-2.82-38.58-25.39-42.35-26.8-83.39"/>
    <path class="st75" d="M1223.32,376.37c2.82-38.58,25.39-42.35,26.8-83.4"/>
    <path class="st75" d="M1249.9,280.64c-2.82-38.58-25.39-42.35-26.8-83.4"/>
    <path class="st75" d="M1223.32,184.91c2.82-38.58,25.39-42.36,26.8-83.41"/>
    <path class="st75" d="M1249.9,89.17c-2.82-38.58-25.39-42.36-26.8-83.41"/>
    <path class="st31" d="M1223.03,1.68v-.04M1250.19,97.42v-.04s0-.04,0-.04M1223.03,193.16v-.04s0-.04,0-.04M1250.19,288.88v-.08M1223.03,384.61v-.08M1250.19,480.34v-.08M1223.03,576.06v-.08M1250.19,671.77v-.08M1223.03,767.46v-.04"/>
    <path class="st20" d="M166.48,9.96c-3.33,38.45-29.59,42.27-31.26,83.23"/>
    <path class="st20" d="M135.48,105.68c3.33,38.45,29.59,42.27,31.26,83.22"/>
    <path class="st20" d="M166.48,201.39c-3.33,38.46-29.59,42.27-31.26,83.23"/>
    <path class="st20" d="M135.48,297.12c3.33,38.46,29.59,42.27,31.26,83.23"/>
    <path class="st68" d="M166.48,392.84c-3.33,38.46-29.59,42.28-31.26,83.24"/>
    <path class="st20" d="M135.48,488.57c3.33,38.46,29.59,42.28,31.26,83.23"/>
    <path class="st67" d="M166.48,584.3c-3.33,38.46-29.59,42.28-31.26,83.25"/>
    <path class="st67" d="M135.48,680.04c3.33,38.46,29.59,42.28,31.26,83.24"/>
    <path class="st32" d="M166.82,767.44h0M135.13,671.7v.03M166.82,575.96h0v.03M135.13,480.24h0v.03M166.82,384.51v.03M135.13,288.78v.03M166.82,193.06h0v.03M135.13,97.35v.02h0M166.82,1.64v.02"/>
    <path class="st20" d="M1199.94,759.13c3.33-38.45,29.59-42.27,31.26-83.23"/>
    <path class="st20" d="M1230.94,663.41c-3.33-38.45-29.59-42.27-31.26-83.22"/>
    <path class="st20" d="M1199.94,567.7c3.33-38.46,29.59-42.27,31.26-83.23"/>
    <path class="st20" d="M1230.94,471.98c-3.33-38.46-29.59-42.27-31.26-83.23"/>
    <path class="st68" d="M1199.94,376.25c3.33-38.46,29.59-42.28,31.26-83.24"/>
    <path class="st20" d="M1230.94,280.52c-3.33-38.46-29.59-42.28-31.26-83.23"/>
    <path class="st67" d="M1199.94,184.8c3.33-38.46,29.59-42.28,31.26-83.25"/>
    <path class="st67" d="M1230.94,89.06c-3.33-38.46-29.59-42.28-31.26-83.25"/>
    <path class="st32" d="M1199.59,1.65h0M1231.28,97.39v-.02s0-.02,0-.02M1199.59,193.13h0v-.03M1231.28,288.86h0v-.03M1199.59,384.59v-.02s0-.02,0-.02M1231.28,480.31v-.03M1199.59,576.04h0v-.03M1231.28,671.75v-.02s0-.01,0-.01M1199.59,767.46v-.02"/>
    <path class="st9" d="M189.79,10.66c-4.08,37.67-33.54,41.8-35.63,82.1"/>
    <path class="st18" d="M154.51,106.38c4.08,37.67,33.54,41.79,35.63,82.09"/>
    <path class="st9" d="M189.79,202.09c-4.08,37.67-33.54,41.8-35.63,82.1"/>
    <path class="st9" d="M154.51,297.82c4.08,37.67,33.54,41.8,35.63,82.1"/>
    <path class="st9" d="M189.79,393.54c-4.08,37.67-33.54,41.8-35.63,82.1"/>
    <path class="st9" d="M154.51,489.27c4.08,37.67,33.54,41.8,35.63,82.1"/>
    <path class="st9" d="M189.79,585c-4.08,37.68-33.54,41.8-35.63,82.11"/>
    <path class="st9" d="M154.51,680.74c4.08,37.68,33.54,41.8,35.63,82.11"/>
    <path class="st74" d="M190.26,767.27v.19M154.04,671.53v.38M190.26,575.79v.38M154.04,480.06v.38M190.26,384.33v.37M154.04,288.61v.38M190.26,192.89v.38M154.04,97.17v.38M190.26,1.64v.19"/>
    <path class="st9" d="M1176.63,758.44c4.08-37.67,33.54-41.8,35.63-82.1"/>
    <path class="st18" d="M1211.91,662.72c-4.08-37.67-33.54-41.79-35.63-82.09"/>
    <path class="st9" d="M1176.63,567c4.08-37.67,33.54-41.8,35.63-82.1"/>
    <path class="st9" d="M1211.91,471.28c-4.08-37.67-33.54-41.8-35.63-82.1"/>
    <path class="st9" d="M1176.63,375.55c4.08-37.67,33.54-41.8,35.63-82.1"/>
    <path class="st9" d="M1211.91,279.83c-4.08-37.67-33.54-41.8-35.63-82.1"/>
    <path class="st9" d="M1176.63,184.1c4.08-37.68,33.54-41.8,35.63-82.11"/>
    <path class="st9" d="M1211.91,88.36c-4.08-37.68-33.54-41.8-35.63-82.11"/>
    <path class="st74" d="M1176.16,1.83v-.19M1212.38,97.57v-.38M1176.16,193.31v-.38M1212.38,289.03v-.38M1176.16,384.76v-.37M1212.38,480.49v-.38M1176.16,576.21v-.38M1212.38,671.92v-.38M1176.16,767.46v-.19"/>
    <path class="st11" d="M213.15,10.8c-4.65,37.52-37.69,41.7-40.07,81.89"/>
    <path class="st11" d="M173.49,106.52c4.65,37.52,37.69,41.7,40.07,81.88"/>
    <path class="st11" d="M213.15,202.23c-4.65,37.52-37.69,41.7-40.07,81.9"/>
    <path class="st11" d="M173.49,297.95c4.65,37.52,37.69,41.7,40.07,81.9"/>
    <path class="st11" d="M213.15,393.68c-4.65,37.52-37.69,41.71-40.07,81.9"/>
    <path class="st11" d="M173.49,489.41c4.65,37.52,37.69,41.7,40.07,81.9"/>
    <path class="st8" d="M213.15,585.14c-4.65,37.53-37.69,41.71-40.07,81.91"/>
    <path class="st8" d="M173.49,680.88c4.65,37.53,37.69,41.71,40.07,81.91"/>
    <path class="st48" d="M213.69,767.28v.17M172.95,671.54v.35M213.69,575.8v.35M172.95,480.08v.35M213.69,384.35v.35M172.95,288.62v.35M213.69,192.9v.35M172.95,97.19v.35M213.69,1.64v.17"/>
    <path class="st11" d="M1153.27,758.3c4.65-37.52,37.69-41.7,40.07-81.89"/>
    <path class="st11" d="M1192.92,662.58c-4.65-37.52-37.69-41.7-40.07-81.88"/>
    <path class="st11" d="M1153.27,566.86c4.65-37.52,37.69-41.7,40.07-81.9"/>
    <path class="st11" d="M1192.92,471.14c-4.65-37.52-37.69-41.7-40.07-81.9"/>
    <path class="st11" d="M1153.27,375.42c4.65-37.52,37.69-41.71,40.07-81.9"/>
    <path class="st11" d="M1192.92,279.69c-4.65-37.52-37.69-41.7-40.07-81.9"/>
    <path class="st8" d="M1153.27,183.96c4.65-37.53,37.69-41.71,40.07-81.91"/>
    <path class="st8" d="M1192.92,88.22c-4.65-37.53-37.69-41.71-40.07-81.91"/>
    <path class="st48" d="M1152.72,1.81v-.17M1193.47,97.55v-.35M1152.72,193.29v-.35M1193.47,289.02v-.35M1152.72,384.75v-.35M1193.47,480.47v-.35M1152.72,576.2v-.35M1193.47,671.91v-.35M1152.72,767.46v-.17"/>
    <path class="st47" d="M237.13,1.64"/>
    <path class="st47" d="M1129.29,767.46"/>
    <path class="st7" d="M233.24,23.43c-10.53,26.52-38.98,34.1-41.24,69.37"/>
    <path class="st5" d="M192.48,106.66c5.24,37.37,41.82,41.6,44.5,81.68"/>
    <path class="st41" d="M236.51,202.37c-5.24,37.37-41.82,41.61-44.5,81.69"/>
    <path class="st41" d="M192.48,298.09c5.24,37.37,41.82,41.61,44.5,81.69"/>
    <path class="st41" d="M236.51,393.82c-5.24,37.37-41.82,41.61-44.5,81.69"/>
    <path class="st41" d="M192.48,489.55c5.24,37.37,41.82,41.61,44.5,81.69"/>
    <path class="st38" d="M236.51,585.28c-5.24,37.38-41.82,41.62-44.5,81.7"/>
    <path class="st80" d="M192.42,680.57c4.74,35.75,37.99,41.36,43.83,75.94"/>
    <path class="st47" d="M236.83,760.91v.02M191.85,671.55v.19M237.13,575.81v.34M191.85,480.08v.34M237.13,384.35v.34M191.85,288.63v.34M237.13,192.9v.34M191.85,97.28v.25M235.87,14.63s-.01.05-.02.08"/>
    <path class="st7" d="M1133.18,745.66c10.53-26.52,38.98-34.1,41.24-69.36"/>
    <path class="st5" d="M1173.94,662.44c-5.24-37.37-41.82-41.6-44.5-81.68"/>
    <path class="st41" d="M1129.91,566.72c5.24-37.37,41.82-41.61,44.5-81.69"/>
    <path class="st41" d="M1173.94,471c-5.24-37.37-41.82-41.61-44.5-81.69"/>
    <path class="st41" d="M1129.91,375.28c5.24-37.37,41.82-41.61,44.5-81.69"/>
    <path class="st41" d="M1173.94,279.55c-5.24-37.37-41.82-41.61-44.5-81.69"/>
    <path class="st38" d="M1129.91,183.82c5.24-37.38,41.82-41.62,44.5-81.7"/>
    <path class="st80" d="M1174,88.52c-4.74-35.75-37.99-41.36-43.83-75.94"/>
    <path class="st47" d="M1129.59,8.18v-.02M1174.56,97.55v-.19M1129.29,193.29v-.34M1174.56,289.02v-.34M1129.29,384.74v-.34M1174.56,480.47v-.34M1129.29,576.19v-.34M1174.56,671.81v-.25M1130.55,754.46s.01-.05.02-.08"/>
    <path class="st47" d="M237.13,767.46"/>
    <path class="st47" d="M1129.29,1.64"/>
    <path class="st43" d="M260.56,1.64"/>
    <path class="st43" d="M1105.85,767.46"/>
    <path class="st70" d="M256.07,23.92c-11.75,26.11-42.64,33.82-45.14,68.81"/>
    <path class="st66" d="M211.48,106.84c5.86,37.18,45.93,41.48,48.91,81.42"/>
    <path class="st10" d="M259.85,202.55c-5.86,37.18-45.93,41.49-48.91,81.43"/>
    <path class="st10" d="M211.48,298.27c5.86,37.18,45.93,41.49,48.91,81.43"/>
    <path class="st10" d="M259.85,394c-5.86,37.19-45.93,41.49-48.91,81.44"/>
    <path class="st10" d="M211.48,489.73c5.86,37.18,45.93,41.49,48.91,81.44"/>
    <path class="st27" d="M259.85,585.45c-5.86,37.19-45.93,41.49-48.91,81.45"/>
    <path class="st25" d="M211.51,681.41c5.62,34.76,41.21,40.71,47.95,74.39"/>
    <path class="st43" d="M260.19,760.52c0,.07.02.14.02.21M210.76,671.58v.35M260.56,575.84v.28M210.76,480.11v.28M260.56,384.38v.28M210.76,288.66v.28M260.56,192.94v.28M210.76,97.32v.18M259.08,15.03s0,.03,0,.04"/>
    <path class="st70" d="M1110.35,745.17c11.75-26.11,42.64-33.82,45.14-68.81"/>
    <path class="st66" d="M1154.94,662.26c-5.86-37.18-45.93-41.48-48.91-81.42"/>
    <path class="st10" d="M1106.56,566.55c5.86-37.18,45.93-41.49,48.91-81.43"/>
    <path class="st10" d="M1154.94,470.82c-5.86-37.18-45.93-41.49-48.91-81.43"/>
    <path class="st10" d="M1106.56,375.1c5.86-37.19,45.93-41.49,48.91-81.44"/>
    <path class="st10" d="M1154.94,279.37c-5.86-37.18-45.93-41.49-48.91-81.44"/>
    <path class="st27" d="M1106.56,183.64c5.86-37.19,45.93-41.49,48.91-81.45"/>
    <path class="st25" d="M1154.9,87.69c-5.62-34.76-41.21-40.71-47.95-74.39"/>
    <path class="st43" d="M1106.23,8.57c0-.07-.02-.14-.02-.21M1155.65,97.52v-.35M1105.85,193.26v-.28M1155.65,288.98v-.14s0-.14,0-.14M1105.85,384.71v-.28M1155.65,480.44v-.28M1105.85,576.16v-.27M1155.65,671.78v-.18M1107.33,754.06s0-.03,0-.04"/>
    <path class="st43" d="M260.56,767.46"/>
    <path class="st43" d="M1105.85,1.64"/>
    <path class="st42" d="M284,1.64"/>
    <path class="st42" d="M1082.42,767.46"/>
    <path class="st15" d="M278.95,24.21c-12.91,25.86-46.33,33.65-49.1,68.45"/>
    <path class="st3" d="M230.48,106.99c6.48,37.01,50.02,41.38,53.33,81.19"/>
    <path class="st3" d="M283.19,202.7c-6.48,37.02-50.02,41.38-53.33,81.2"/>
    <path class="st3" d="M230.48,298.42c6.48,37.02,50.02,41.38,53.33,81.2"/>
    <path class="st3" d="M283.19,394.15c-6.48,37.02-50.02,41.39-53.33,81.21"/>
    <path class="st3" d="M230.48,489.88c6.48,37.02,50.02,41.39,53.33,81.2"/>
    <path class="st3" d="M283.19,585.61c-6.48,37.02-50.02,41.39-53.33,81.22"/>
    <path class="st76" d="M230.51,681.56c6.21,34.56,44.8,40.59,52.24,74.05"/>
    <path class="st42" d="M283.58,760.41c0,.07.02.14.03.21M229.67,671.58v.35M284,575.84v.28M229.67,480.11v.28M284,384.38v.28M229.67,288.66v.28M284,192.93v.28M229.67,97.32v.18M282.33,15.24s0,.03-.01.04"/>
    <path class="st15" d="M1087.46,744.88c12.91-25.86,46.33-33.65,49.1-68.45"/>
    <path class="st3" d="M1135.94,662.11c-6.48-37.01-50.02-41.38-53.33-81.19"/>
    <path class="st3" d="M1083.22,566.39c6.48-37.02,50.02-41.38,53.33-81.2"/>
    <path class="st3" d="M1135.94,470.67c-6.48-37.02-50.02-41.38-53.33-81.2"/>
    <path class="st3" d="M1083.22,374.95c6.48-37.02,50.02-41.39,53.33-81.21"/>
    <path class="st3" d="M1135.94,279.22c-6.48-37.02-50.02-41.39-53.33-81.2"/>
    <path class="st3" d="M1083.22,183.49c6.48-37.02,50.02-41.39,53.33-81.22"/>
    <path class="st76" d="M1135.9,87.53c-6.21-34.56-44.8-40.59-52.24-74.05"/>
    <path class="st42" d="M1082.84,8.69c0-.07-.02-.14-.02-.21M1136.74,97.52v-.35M1082.42,193.26v-.28M1136.74,288.98v-.28M1082.42,384.71v-.28M1136.74,480.44v-.28M1082.42,576.16v-.28M1136.74,671.78v-.18M1084.09,753.86s0-.03.01-.04"/>
    <path class="st42" d="M284,767.46"/>
    <path class="st42" d="M1082.42,1.64"/>
    <path class="st51" d="M307.43,1.64"/>
    <path class="st51" d="M1058.98,767.46"/>
    <path class="st2" d="M301.81,24.5c-14.09,25.61-49.99,33.48-53.02,68.08"/>
    <path class="st36" d="M249.48,107.15c7.12,36.84,54.1,41.27,57.73,80.95"/>
    <path class="st36" d="M306.53,202.86c-7.12,36.84-54.1,41.28-57.73,80.96"/>
    <path class="st36" d="M249.48,298.59c7.12,36.84,54.1,41.28,57.73,80.96"/>
    <path class="st36" d="M306.53,394.31c-7.12,36.85-54.1,41.28-57.73,80.96"/>
    <path class="st36" d="M249.48,490.04c7.12,36.84,54.1,41.28,57.73,80.96"/>
    <path class="st36" d="M306.53,585.77c-7.12,36.85-54.1,41.28-57.73,80.97"/>
    <path class="st82" d="M249.53,681.73c6.81,34.35,48.35,40.45,56.52,73.7"/>
    <path class="st51" d="M306.96,760.29c0,.07.02.14.03.22M248.58,671.57v.36M307.43,575.83s0,.1,0,.14,0,.09,0,.14M248.58,480.11v.28M307.43,384.38s0,.09,0,.14c0,.05,0,.1,0,.14M248.58,288.65v.28M307.43,192.93s0,.09,0,.14,0,.09,0,.14M248.58,97.32v.19M305.56,15.46s0,.03-.01.04"/>
    <path class="st2" d="M1064.61,744.59c14.09-25.61,49.99-33.48,53.02-68.08"/>
    <path class="st36" d="M1116.93,661.95c-7.12-36.84-54.1-41.27-57.73-80.95"/>
    <path class="st36" d="M1059.88,566.23c7.12-36.84,54.1-41.28,57.73-80.96"/>
    <path class="st36" d="M1116.93,470.51c-7.12-36.84-54.1-41.28-57.73-80.96"/>
    <path class="st36" d="M1059.88,374.78c7.12-36.85,54.1-41.28,57.73-80.96"/>
    <path class="st36" d="M1116.93,279.06c-7.12-36.84-54.1-41.28-57.73-80.96"/>
    <path class="st36" d="M1059.88,183.33c7.12-36.85,54.1-41.28,57.73-80.97"/>
    <path class="st82" d="M1116.89,87.37c-6.81-34.35-48.35-40.45-56.52-73.7"/>
    <path class="st51" d="M1059.45,8.81c0-.07-.02-.14-.03-.22M1117.83,97.52v-.36M1058.98,193.26v-.29M1117.83,288.99v-.28M1058.98,384.72v-.28M1117.83,480.44v-.28M1058.98,576.16v-.28M1117.83,671.78v-.19M1060.85,753.64s0-.03.01-.04"/>
    <path class="st51" d="M307.43,767.46"/>
    <path class="st51" d="M1058.98,1.64"/>
    <path class="st50" d="M330.87,1.64"/>
    <path class="st50" d="M1035.55,767.46"/>
    <path class="st73" d="M324.63,24.8c-15.29,25.35-53.6,33.3-56.91,67.69"/>
    <path class="st55" d="M268.49,107.32c7.78,36.66,58.16,41.16,62.13,80.69"/>
    <path class="st29" d="M329.86,203.03c-7.78,36.66-58.16,41.16-62.13,80.7"/>
    <path class="st29" d="M268.49,298.75c7.78,36.66,58.16,41.16,62.13,80.7"/>
    <path class="st29" d="M329.86,394.48c-7.78,36.66-58.16,41.16-62.13,80.7"/>
    <path class="st29" d="M268.49,490.21c7.78,36.66,58.16,41.16,62.13,80.7"/>
    <path class="st29" d="M329.86,585.93c-7.78,36.67-58.16,41.17-62.13,80.71"/>
    <path class="st4" d="M268.54,681.9c7.43,34.13,51.87,40.31,60.77,73.32"/>
    <path class="st50" d="M330.34,760.16c.01.07.02.15.03.22M267.49,671.57v.37M330.87,575.83v.29M267.49,480.11v.29M330.87,384.38v.29M267.49,288.65v.29M330.87,192.93v.29M267.49,97.32v.19M328.78,15.68s0,.03-.01.04"/>
    <path class="st73" d="M1041.79,744.29c15.29-25.35,53.6-33.3,56.91-67.69"/>
    <path class="st55" d="M1097.92,661.78c-7.78-36.66-58.16-41.16-62.13-80.69"/>
    <path class="st29" d="M1036.55,566.06c7.78-36.66,58.16-41.16,62.13-80.7"/>
    <path class="st29" d="M1097.92,470.34c-7.78-36.66-58.16-41.16-62.13-80.7"/>
    <path class="st29" d="M1036.55,374.62c7.78-36.66,58.16-41.16,62.13-80.7"/>
    <path class="st29" d="M1097.92,278.89c-7.78-36.66-58.16-41.16-62.13-80.7"/>
    <path class="st29" d="M1036.55,183.16c7.78-36.67,58.16-41.17,62.13-80.71"/>
    <path class="st4" d="M1097.87,87.19c-7.43-34.13-51.87-40.31-60.77-73.32"/>
    <path class="st50" d="M1036.07,8.93c-.01-.07-.02-.15-.03-.22M1098.93,97.52v-.37M1035.55,193.26v-.29M1098.93,288.99v-.29M1035.55,384.72v-.29M1098.93,480.44v-.29M1035.55,576.17v-.29M1098.93,671.78v-.19M1037.63,753.41s0-.03.01-.04"/>
    <path class="st50" d="M330.87,767.46"/>
    <path class="st50" d="M1035.55,1.64"/>
    <path class="st45" d="M354.3,1.64"/>
    <path class="st45" d="M1012.11,767.46"/>
    <path class="st24" d="M347.42,25.12c-16.5,25.08-57.18,33.12-60.77,67.29"/>
    <path class="st44" d="M287.51,107.49c8.46,36.47,62.19,41.04,66.52,80.42"/>
    <path class="st44" d="M353.19,203.21c-8.46,36.47-62.19,41.04-66.52,80.43"/>
    <path class="st59" d="M287.51,298.93c8.46,36.47,62.19,41.04,66.52,80.43"/>
    <path class="st59" d="M353.19,394.65c-8.46,36.48-62.19,41.05-66.52,80.44"/>
    <path class="st59" d="M287.51,490.38c8.46,36.48,62.19,41.04,66.52,80.44"/>
    <path class="st58" d="M353.19,586.11c-8.46,36.48-62.19,41.05-66.52,80.45"/>
    <path class="st69" d="M287.57,682.08c8.07,33.9,55.34,40.16,65.01,72.94"/>
    <path class="st45" d="M353.72,760.03c.01.07.02.15.04.22M286.4,671.57v.37M354.3,575.83v.3M286.4,480.1v.3M354.3,384.37v.29M286.4,288.65v.29M354.3,192.93v.3M286.4,97.32v.19M351.98,15.93s0,.03-.02.04"/>
    <path class="st24" d="M1019,743.98c16.5-25.08,57.18-33.12,60.77-67.29"/>
    <path class="st44" d="M1078.9,661.6c-8.46-36.47-62.19-41.04-66.51-80.42"/>
    <path class="st44" d="M1013.23,565.89c8.46-36.47,62.19-41.04,66.52-80.43"/>
    <path class="st59" d="M1078.9,470.17c-8.46-36.47-62.19-41.04-66.52-80.43"/>
    <path class="st59" d="M1013.23,374.44c8.46-36.48,62.19-41.05,66.52-80.44"/>
    <path class="st59" d="M1078.9,278.71c-8.46-36.48-62.19-41.04-66.52-80.44"/>
    <path class="st58" d="M1013.23,182.99c8.46-36.48,62.19-41.05,66.52-80.45"/>
    <path class="st69" d="M1078.85,87.02c-8.07-33.9-55.34-40.16-65.01-72.94"/>
    <path class="st45" d="M1012.7,9.06c-.01-.07-.02-.15-.04-.22M1080.02,97.53v-.37M1012.11,193.27v-.3M1080.02,288.99v-.3M1012.11,384.72v-.29M1080.02,480.44v-.29M1012.11,576.17v-.3M1080.02,671.78v-.19M1014.43,753.16s0-.03.02-.04"/>
    <path class="st45" d="M354.3,767.46"/>
    <path class="st45" d="M1012.11,1.64"/>
    <path class="st49" d="M377.74,1.64"/>
    <path class="st49" d="M988.67,767.46"/>
    <path class="st26" d="M370.19,25.41c-17.71,24.83-60.72,32.94-64.6,66.91"/>
    <path class="st6" d="M306.54,107.67c9.16,36.27,66.21,40.91,70.89,80.15"/>
    <path class="st37" d="M376.5,203.39c-9.16,36.28-66.21,40.92-70.89,80.16"/>
    <path class="st37" d="M306.54,299.11c9.16,36.28,66.21,40.92,70.89,80.16"/>
    <path class="st37" d="M376.5,394.83c-9.16,36.28-66.21,40.92-70.89,80.16"/>
    <path class="st37" d="M306.54,490.56c9.16,36.28,66.21,40.92,70.89,80.16"/>
    <path class="st37" d="M376.5,586.29c-9.16,36.28-66.21,40.93-70.89,80.17"/>
    <path class="st14" d="M306.6,682.26c8.72,33.66,58.79,40.01,69.23,72.54"/>
    <path class="st49" d="M377.09,759.89c.01.08.03.15.04.23M305.31,671.57v.38M377.74,575.83v.3M305.31,480.1v.3M377.74,384.37v.3M305.31,288.65v.3M377.74,192.92v.3M305.31,97.32v.2M375.18,16.16s-.01.03-.02.04"/>
    <path class="st26" d="M996.23,743.69c17.71-24.83,60.72-32.94,64.6-66.91"/>
    <path class="st6" d="M1059.87,661.42c-9.16-36.27-66.21-40.91-70.89-80.15"/>
    <path class="st37" d="M989.91,565.71c9.16-36.28,66.21-40.92,70.89-80.16"/>
    <path class="st37" d="M1059.87,469.99c-9.16-36.28-66.21-40.92-70.89-80.16"/>
    <path class="st37" d="M989.91,374.26c9.16-36.28,66.21-40.92,70.89-80.16"/>
    <path class="st37" d="M1059.87,278.53c-9.16-36.28-66.21-40.92-70.89-80.16"/>
    <path class="st37" d="M989.91,182.81c9.16-36.28,66.21-40.93,70.89-80.17"/>
    <path class="st14" d="M1059.81,86.83c-8.72-33.66-58.79-40.01-69.23-72.54"/>
    <path class="st49" d="M989.32,9.2c-.01-.08-.03-.15-.04-.23M1061.11,97.53v-.38M988.67,193.27v-.3M1061.11,288.99v-.3M988.67,384.72v-.3M1061.11,480.45v-.3M988.67,576.17v-.3M1061.11,671.78v-.2M991.24,752.94s.01-.03.02-.04"/>
    <path class="st49" d="M377.74,767.46"/>
    <path class="st49" d="M988.67,1.64"/>
  </g>
  <path class="st54" d="M399.98,1.67"/>
  <path class="st54" d="M964.02,767.46"/>
  <g class="st83">
    <path class="st28" d="M391.73,25.73c-18.94,24.57-64.21,32.76-68.4,66.51"/>
    <path class="st33" d="M324.39,107.88c9.88,36.07,70.2,40.79,75.26,79.86"/>
    <path class="st33" d="M398.61,203.59c-9.88,36.08-70.2,40.79-75.26,79.87"/>
    <path class="st33" d="M324.39,299.31c9.88,36.08,70.2,40.79,75.26,79.87"/>
    <path class="st33" d="M398.61,395.03c-9.88,36.08-70.2,40.79-75.26,79.87"/>
    <path class="st33" d="M324.39,490.76c9.88,36.08,70.2,40.79,75.26,79.87"/>
    <path class="st33" d="M398.61,586.48c-9.88,36.08-70.2,40.8-75.26,79.89"/>
    <path class="st78" d="M324.45,682.46c9.39,33.42,62.19,39.85,73.42,72.13"/>
    <path class="st54" d="M399.27,759.76c.02.08.03.16.04.23M323.02,671.57v.39M399.98,575.83c0,.05,0,.1,0,.15s0,.1,0,.15M323.02,480.11v.31M399.98,384.38c0,.05,0,.1,0,.15s0,.1,0,.15M323.02,288.66v.3M399.98,192.94c0,.05,0,.1,0,.15s0,.1,0,.15M323.02,97.34v.2M397.16,16.43s-.01.03-.02.04"/>
    <path class="st28" d="M972.27,743.39c18.94-24.57,64.21-32.76,68.4-66.51"/>
    <path class="st33" d="M1039.61,661.24c-9.88-36.07-70.2-40.79-75.26-79.86"/>
    <path class="st33" d="M965.38,565.53c9.88-36.08,70.2-40.79,75.26-79.87"/>
    <path class="st33" d="M1039.61,469.81c-9.88-36.08-70.2-40.79-75.26-79.87"/>
    <path class="st33" d="M965.38,374.09c9.88-36.08,70.2-40.79,75.26-79.87"/>
    <path class="st33" d="M1039.61,278.37c-9.88-36.08-70.2-40.79-75.26-79.87"/>
    <path class="st33" d="M965.38,182.64c9.88-36.08,70.2-40.8,75.26-79.89"/>
    <path class="st78" d="M1039.54,86.67c-9.39-33.42-62.19-39.85-73.42-72.13"/>
    <path class="st54" d="M964.73,9.37c-.02-.08-.03-.16-.04-.23M1040.98,97.56v-.39M964.02,193.29c0-.05,0-.1,0-.15s0-.1,0-.15M1040.98,289.02v-.31M964.02,384.74c0-.05,0-.1,0-.15s0-.1,0-.15M1040.98,480.46v-.3M964.02,576.18c0-.05,0-.1,0-.15s0-.1,0-.15M1040.98,671.78v-.2M966.84,752.69s.01-.03.02-.04"/>
  </g>
  <path class="st54" d="M399.98,767.46"/>
  <path class="st54" d="M964.02,1.67"/>
  <path class="st52" d="M423.41,1.67"/>
  <path class="st52" d="M940.58,767.46"/>
  <g class="st85">
    <path class="st21" d="M414.43,26.03c-20.17,24.32-67.68,32.59-72.16,66.12"/>
    <path class="st40" d="M343.43,108.07c10.62,35.87,74.17,40.66,79.61,79.57"/>
    <path class="st22" d="M421.91,203.78c-10.62,35.87-74.17,40.66-79.61,79.58"/>
    <path class="st22" d="M343.43,299.5c10.62,35.87,74.17,40.66,79.61,79.58"/>
    <path class="st81" d="M421.91,395.22c-10.62,35.88-74.17,40.66-79.61,79.58"/>
    <path class="st22" d="M343.43,490.95c10.62,35.87,74.17,40.66,79.61,79.58"/>
    <path class="st81" d="M421.91,586.67c-10.62,35.88-74.17,40.67-79.61,79.59"/>
    <path class="st39" d="M343.5,682.65c10.08,33.18,65.55,39.69,77.6,71.71"/>
    <path class="st52" d="M422.63,759.61c.02.08.03.16.05.23M341.93,671.56v.4M423.41,575.83v.31M341.93,480.11v.31M423.41,384.38v.31M341.93,288.66v.31M423.41,192.94v.31M341.93,97.34v.2M420.32,16.68s-.01.03-.02.05"/>
    <path class="st21" d="M949.56,743.1c20.17-24.32,67.68-32.59,72.16-66.12"/>
    <path class="st40" d="M1020.57,661.05c-10.62-35.87-74.17-40.66-79.61-79.57"/>
    <path class="st22" d="M942.08,565.34c10.62-35.87,74.17-40.66,79.61-79.58"/>
    <path class="st22" d="M1020.57,469.62c-10.62-35.87-74.17-40.66-79.61-79.58"/>
    <path class="st81" d="M942.08,373.9c10.62-35.88,74.17-40.66,79.61-79.58"/>
    <path class="st22" d="M1020.57,278.18c-10.62-35.87-74.17-40.66-79.61-79.58"/>
    <path class="st81" d="M942.08,182.45c10.62-35.88,74.17-40.67,79.61-79.59"/>
    <path class="st39" d="M1020.49,86.48c-10.08-33.18-65.55-39.69-77.6-71.71"/>
    <path class="st52" d="M941.37,9.51c-.02-.08-.03-.16-.05-.23M1022.07,97.56v-.4M940.58,193.3v-.31M1022.07,289.02v-.31M940.58,384.74v-.31M1022.07,480.47v-.31M940.58,576.18v-.31M1022.07,671.78v-.2M943.68,752.45l.02-.05"/>
  </g>
  <path class="st52" d="M423.41,767.46"/>
  <path class="st52" d="M940.58,1.67"/>
  <path class="st53" d="M446.85,1.67"/>
  <path class="st53" d="M917.15,767.46"/>
  <g class="st84">
    <path class="st79" d="M437.11,26.32c-21.41,24.07-71.1,32.42-75.9,65.73"/>
    <path class="st16" d="M362.48,108.27c11.38,35.66,78.12,40.52,83.96,79.27"/>
    <path class="st1" d="M445.2,203.98c-11.38,35.66-78.12,40.53-83.96,79.28"/>
    <path class="st1" d="M362.48,299.7c11.38,35.66,78.12,40.53,83.96,79.28"/>
    <path class="st1" d="M445.2,395.42c-11.38,35.67-78.12,40.53-83.96,79.29"/>
    <path class="st1" d="M362.48,491.14c11.38,35.67,78.12,40.53,83.96,79.28"/>
    <path class="st1" d="M445.2,586.87c-11.38,35.67-78.12,40.54-83.96,79.29"/>
    <path class="st72" d="M362.56,682.85c10.78,32.93,68.88,39.52,81.76,71.29"/>
    <path class="st53" d="M445.98,759.47c.02.08.04.16.05.24M360.84,671.56v.4M446.85,575.83v.32M360.84,480.1v.32M446.85,384.38v.32M360.84,288.66v.32M446.85,192.94v.32M360.84,97.34v.21M443.46,16.93s-.01.03-.02.05"/>
    <path class="st79" d="M926.88,742.81c21.41-24.07,71.1-32.42,75.9-65.73"/>
    <path class="st16" d="M1001.51,660.86c-11.38-35.66-78.12-40.52-83.96-79.27"/>
    <path class="st1" d="M918.79,565.15c11.38-35.66,78.12-40.53,83.96-79.28"/>
    <path class="st1" d="M1001.51,469.43c-11.38-35.66-78.12-40.53-83.96-79.28"/>
    <path class="st1" d="M918.79,373.71c11.38-35.67,78.12-40.53,83.96-79.29"/>
    <path class="st1" d="M1001.51,277.98c-11.38-35.67-78.12-40.53-83.96-79.28"/>
    <path class="st1" d="M918.79,182.26c11.38-35.67,78.12-40.54,83.96-79.29"/>
    <path class="st72" d="M1001.44,86.28c-10.78-32.93-68.88-39.52-81.76-71.29"/>
    <path class="st53" d="M918.01,9.66c-.02-.08-.04-.16-.05-.24M1003.16,97.56v-.4M917.15,193.3v-.32M1003.16,289.02v-.32M917.15,384.75v-.32M1003.16,480.47v-.32M917.15,576.19v-.32M1003.16,671.78v-.21M920.53,752.2s.01-.03.02-.05"/>
  </g>
  <path class="st53" d="M446.85,767.46"/>
  <path class="st53" d="M917.15,1.67"/>
</svg>