<?xml version="1.0" encoding="UTF-8"?>
<svg id="Ebene_1" data-name="Ebene 1" xmlns="http://www.w3.org/2000/svg" viewBox="0 0 1366 768">
  <path d="M1338.67,287.29c1.08-4.8,1.93-9.65,2.55-14.53.46-3.6.84-6.76.81-7.08-.18-1.78-.63-5.34-1.68-8.98-.84-5.84-2.59-11.31-5.69-15.78,0,0-7.53-10.15-33.5,7.24.24-4.24-1.73-8.1-5.28-9.57-4.72-1.95-10.46,1.07-12.82,6.75-2.3,5.54-.54,11.54,3.91,13.66h.01s-.08.07-.12.1c-.03.03-.07.05-.11.09-.02.01-.04.02-.06.05-8.78,6.63-17.71,16.75-38.16,28.29-.11.06-.55.21-1.18.41-2.4.77-4.93,1.65-7.48,2.15-7.06.7-22.89-1.51-27.04-3.68-1.24-1.6-1.81-3.33-2.08-4.65,3.41-.87,16.94-4.5,30.14-10.2h.01c21.84-7.59,12.31-25.86,12.31-25.86-2.84-4.85-16.04-21.94-49.58,4.25,0,0-5.14,4.06-10.17,10.63-2.44.13-5.26.7-8.49,1.97-13.64,5.39-16.9,11.14-43.34,26.87,2.88-14.24,4.69-34.35-3.94-46.78,0,0-11.82-15.94-56.92,26.34,0,0-.29-5.01-1.78-10.18-.84-5.84-2.58-11.31-5.69-15.78,0,0-10.41-14.03-48.94,19.15-.34-3.2-4.59-7.49-17.82-12.94l-4.28,11.66c-1.77.3-3.7.83-5.81,1.66-13.64,5.39-16.9,11.14-43.33,26.87,2.87-14.24,4.68-34.35-3.95-46.78,0,0-11.82-15.94-56.92,26.34,0,0-.28-5.01-1.77-10.18-.84-5.84-2.59-11.31-5.69-15.78,0,0-10.41-14.03-48.95,19.15-.33-3.2-4.59-7.49-17.81-12.94l-4.06,11.04c-1.89.29-3.99.84-6.29,1.75-13.68,5.39-16.92,11.16-43.55,26.99,0,0,8.28-25.56,10.07-30.95,1.8-5.4-3.59-15.84-17.63-15.48,0,0-.77,1.8-3.05,4.87-2.85-4.84-16.05-21.94-49.59,4.25,0,0-11.17,8.83-16.67,21.51,0,.01-.01.03-.02.04-3.35,4.43-7.38,8.98-11.57,11.99-7.11,5.13-15.41,1.04-20.22-2.33-8.02-7.1-18.02-15.7-26.3-22.05,18.79-11.45,40.49-26.34,40.49-26.34l1.51-4.75s-6.48-7.2-20.15-1.8c-11.32,4.46-15.49,9.18-31.68,19.65,6.95-18.99,17.22-41.17,31.61-59.14,3.56-4.45-1.64-15.39-14.22-20.18l-23.81,42.84c-8.51,15.3-14.42,31.92-17.47,49.16-2.33.18-5.01.76-8.04,1.95-13.67,5.4-16.91,11.16-43.55,26.99,0,0,8.28-25.55,10.08-30.95s-3.6-15.84-17.63-15.48c0,0-8.54,20.09-54.35,41.39,0,0-.36-15.83,10.8-33.83,0,0,8.52-14.23-20.4-9.81,0,0-.02.05-.06.16-.78.01-1.65.09-2.63.22-8.51,1.17-21.8,1.7-31.59,1.93-.23-.33-.38-.49-.38-.49,0,0-10.63-24.2-49.13,5.87,0,0-6.92,5.46-12.55,13.97-.64.21-1.3.44-1.98.71-13.67,5.4-16.91,11.16-43.54,27,0,0,1.84-9.68,6.09-23.87.04-.12.07-.24.11-.36,6.44-21.41,18.32-52.87,37.52-76.87,3.56-4.44-1.64-15.39-14.21-20.18l-23.82,42.84c-8.49,15.26-14.38,31.82-17.44,49.01-2.14.23-4.55.81-7.24,1.87-13.68,5.4-16.92,11.16-43.55,27,0,0,8.28-25.56,10.08-30.96,1.8-5.4-3.6-15.84-17.64-15.48,0,0-.77,1.8-3.05,4.88-2.85-4.85-16.05-21.94-49.59,4.25,0,0-4.27,3.37-8.84,8.95-3.05-.33-6.95.02-11.72,1.9-13.64,5.38-16.9,11.13-43.34,26.87,2.88-14.25,4.69-34.35-3.94-46.78,0,0-11.82-15.95-56.92,26.33,0,0-.28-5-1.78-10.18-.83-5.83-2.58-11.3-5.69-15.78,0,0-10.4-14.03-48.94,19.16-.34-3.2-4.59-7.49-17.82-12.94l-6.51,17.72s-5.25,12.99-7.98,20.56v493.61h1380.61V263.74c-8.72,4.73-14.99,10.92-36.2,23.55ZM1237.52,249.62c6.78,2.45,1.38,8.02-5.9,10.72-7.64,2.84-14.81,3.54-14.81,3.54,0,0,13.93-16.71,20.71-14.26ZM235.48,273.87c-9.61,6.91-18.94,10.37-20.83,7.74-1.9-2.64,4.35-10.38,13.96-17.29,9.6-6.91,18.93-10.37,20.83-7.73,1.9,2.64-4.35,10.38-13.96,17.28ZM413.91,270.06c-9.6,6.91-18.93,10.37-20.83,7.73-1.06-1.47.42-4.54,3.62-8.17.16-.19.33-.38.51-.57,2.48-2.71,5.87-5.7,9.83-8.54,3.67-2.63,7.29-4.77,10.47-6.25.84,1.9,3.11,3.83,7.66,5.6-2.53,3.12-6.48,6.76-11.26,10.2ZM731.66,273.52c-9.6,6.91-18.93,10.37-20.83,7.73-1.9-2.64,4.35-10.38,13.96-17.29,9.61-6.91,18.94-10.37,20.83-7.73,1.9,2.64-4.35,10.38-13.96,17.29Z"/>
</svg>