<?xml version="1.0" encoding="UTF-8"?>
<svg id="Ebene_1" data-name="Ebene 1" xmlns="http://www.w3.org/2000/svg" viewBox="0 0 1366 768">
  <defs>
    <style>
      .cls-1 {
        fill: #ff9ed6;
      }
    </style>
  </defs>
  <g>
    <path class="cls-1" d="M555.36,270.94s-17.17,44.26-2.64,66.71c0,0,11.89,17.17,60.77-25.76,0,0,.66,34.28,15.19,29.66,14.53-4.62,67.37-40.89,67.37-40.89l1.59-5s-6.82-7.58-21.21-1.89-17.8,11.75-45.83,28.41c0,0,8.71-26.9,10.61-32.58s-3.79-16.67-18.56-16.29c0,0-8.98,21.13-57.19,43.56,0,0-.38-16.67,11.36-35.6,0,0,8.97-14.98-21.46-10.33Z"/>
    <path class="cls-1" d="M437.12,195.27c13.23,5.04,18.7,16.56,14.96,21.24-33.79,42.21-46.02,106.39-46.02,106.39,28.03-16.67,31.44-22.73,45.83-28.41,14.39-5.68,21.21,1.89,21.21,1.89l-1.59,5s-52.84,36.26-67.37,40.89c-7.87,2.5-11.67-4.29-13.5-11.05-1.54-5.67-1.65-11.63-.67-17.41l3.49-20.51c3.16-18.57,9.45-36.47,18.6-52.94l25.07-45.08Z"/>
    <path class="cls-1" d="M386.08,293.9c-14.39,5.68-17.8,11.75-45.83,28.41,0,0,8.71-26.9,10.61-32.58,1.89-5.68-3.79-16.67-18.56-16.29,0,0-.81,1.89-3.21,5.13-3-5.09-16.89-23.09-52.18,4.48,0,0-32.93,26.01-15.69,53.52,0,0,.42.43,1.24,1.03l-.08.18s1.92,2.76,7.36,3.3c6.84,1.88,17.63,1.6,31.87-9.03,7.85-5.86,14.88-12.73,20.89-19.47.22-.19.43-.37.65-.56,0,0,.66,34.28,15.19,29.66,14.53-4.62,67.37-40.89,67.37-40.89l1.59-5s-6.82-7.58-21.21-1.89ZM306.09,306.01c-10.11,7.27-19.93,10.91-21.92,8.14-2-2.78,4.58-10.92,14.69-18.19,10.11-7.27,19.93-10.91,21.92-8.14,2,2.78-4.58,10.92-14.69,18.19Z"/>
    <path class="cls-1" d="M518.88,272.86s-11.19-25.47-51.7,6.17c0,0-32.93,26.01-15.69,53.52,0,0,16.23,16.86,40.39-4.51,42.92-37.96,27.01-55.18,27.01-55.18M493.87,302c-10.11,7.27-19.93,10.91-21.92,8.14-2-2.78,4.58-10.92,14.69-18.19,10.11-7.27,19.93-10.91,21.92-8.14,2,2.78-4.58,10.92-14.69,18.19Z"/>
    <path class="cls-1" d="M255.26,294.47c-14.35,5.67-17.79,11.71-45.61,28.28,3.03-14.99,4.93-36.15-4.15-49.23,0,0-12.44-16.78-59.9,27.72,0,0-.3-5.27-1.87-10.71-.88-6.14-2.72-11.9-5.99-16.61,0,0-10.95-14.77-51.51,20.16-.36-3.37-4.83-7.88-18.75-13.62l-6.86,18.65s-8.07,19.97-9.78,25.71c-1.71,5.74,4.33,16.53,19.08,15.68,0,0,8.29-21.42,55.75-45.39,0,0,.92,16.64-10.2,35.95,0,0-8.48,15.26,21.79,9.63,0,0,.13-.38.36-1.09l.07.5s8.29-21.42,55.75-45.39c0,0,.3,4.04-.56,10.25-.96,7-.75,14.13.72,21.04,1.96,9.19,5.92,18.8,13.9,16.26,14.53-4.62,67.37-40.89,67.37-40.89l1.59-5s-6.82-7.58-21.21-1.89Z"/>
    <path class="cls-1" d="M505.96,273.59s30.93-.09,46.57-2.24c15.64-2.15,6.02,10.93,6.02,10.93,0,0-37.51,14.01-50.29,9.88-23.39-7.56-2.3-18.57-2.3-18.57Z"/>
  </g>
  <g>
    <path class="cls-1" d="M482.19,491.39c-7.87,2.5-11.67-4.29-13.5-11.05-1.54-5.67-1.65-11.63-.67-17.41l3.49-20.51c3.16-18.57,9.45-36.47,18.6-52.94l25.07-45.08c13.23,5.04,18.7,16.56,14.96,21.24-33.79,42.21-46.02,106.39-46.02,106.39"/>
    <path class="cls-1" d="M484.37,435.59c28.03-16.67,31.44-22.73,45.83-28.41,14.39-5.68,21.21,1.89,21.21,1.89l-1.59,5s-52.84,36.26-67.37,40.89"/>
    <path class="cls-1" d="M695.09,443.01c-14.39,5.68-17.8,11.75-45.83,28.41,0,0,8.71-26.9,10.61-32.58,1.89-5.68-3.79-16.67-18.56-16.29,0,0-.81,1.89-3.21,5.13-3-5.09-16.89-23.09-52.18,4.48,0,0-32.93,26.01-15.69,53.52,0,0,.42.43,1.24,1.03l-.08.18s1.92,2.76,7.36,3.3c6.84,1.88,17.63,1.6,31.87-9.03,7.85-5.86,14.88-12.73,20.89-19.47.22-.19.43-.37.65-.56,0,0,.66,34.28,15.19,29.66,14.53-4.62,67.37-40.89,67.37-40.89l1.59-5s-6.82-7.58-21.21-1.89ZM615.09,455.12c-10.11,7.27-19.93,10.91-21.92,8.14-2-2.78,4.58-10.92,14.69-18.19,10.11-7.27,19.93-10.91,21.92-8.14,2,2.78-4.58,10.92-14.69,18.19Z"/>
    <g>
      <path class="cls-1" d="M1253.63,469.78c28.03-16.67,31.44-22.73,45.83-28.41s21.21,1.89,21.21,1.89l-1.59,5s-52.84,36.26-67.37,40.89c-14.53,4.62-15.19-22.46-15.19-22.46"/>
      <path class="cls-1" d="M1162.79,471.71c-1.71,5.74,46.35-22.08,61.1-22.94,0,0-33.73,17.2,13.72-6.77,0,0,.99,11.79-1.11,24.7l12.69,20.88,2.98-11c1.98-7.3,3.45-14.74,4.4-22.25.48-3.79.88-7.12.85-7.45-.19-1.88-.66-5.63-1.77-9.46-.88-6.14-2.72-11.9-5.99-16.61,0,0-10.95-14.77-51.51,20.16"/>
      <ellipse class="cls-1" cx="1204.38" cy="429.2" rx="11.73" ry="9.75" transform="translate(346.69 1377.42) rotate(-67.48)"/>
      <path class="cls-1" d="M1227.86,430.45l-8.12,2.88c-2.59-.85-6-.86-10.45.9-14.27,5.63-21.24,19.28-50.24,35.64-.11.06-.58.22-1.24.44-4.63,1.48-9.73,3.34-14.51,2.48l-13.54-1.48-13.42,6.86s27.14,15.62,41.68,11c14.53-4.62,67.37-40.89,67.37-40.89l8.48-9.69-6.01-8.13Z"/>
    </g>
    <path class="cls-1" d="M893.76,443.58c-14.35,5.67-17.79,11.71-45.61,28.28,3.03-14.99,4.93-36.15-4.15-49.23,0,0-12.44-16.78-59.9,27.72,0,0-.3-5.27-1.87-10.71-.88-6.14-2.72-11.9-5.99-16.61,0,0-10.95-14.77-51.51,20.16-.36-3.37-4.83-7.88-18.75-13.62l-6.86,18.65s-8.07,19.97-9.78,25.71c-1.71,5.74,4.33,16.53,19.08,15.68,0,0,8.29-21.42,55.75-45.39,0,0,.92,16.64-10.2,35.95,0,0-8.48,15.26,21.79,9.63,0,0,.13-.38.36-1.09l.07.5s8.29-21.42,55.75-45.39c0,0,.3,4.04-.56,10.25-.96,7-.75,14.13.72,21.04,1.96,9.19,5.92,18.8,13.9,16.26,14.53-4.62,67.37-40.89,67.37-40.89l1.59-5s-6.82-7.58-21.21-1.89Z"/>
    <path class="cls-1" d="M1092.15,443.58c-14.35,5.67-17.79,11.71-45.61,28.28,3.03-14.99,4.93-36.15-4.15-49.23,0,0-12.44-16.78-59.9,27.72,0,0-.3-5.27-1.87-10.71-.88-6.14-2.72-11.9-5.99-16.61,0,0-10.95-14.77-51.51,20.16-.36-3.37-4.83-7.88-18.75-13.62l-6.86,18.65s-8.07,19.97-9.78,25.71c-1.71,5.74,4.33,16.53,19.08,15.68,0,0,8.29-21.42,55.75-45.39,0,0,.92,16.64-10.2,35.95,0,0-8.48,15.26,21.79,9.63,0,0,.13-.38.36-1.09l.07.5s8.29-21.42,55.75-45.39c0,0,.3,4.04-.56,10.25-.96,7-.75,14.13.72,21.04,1.96,9.19,5.92,18.8,13.9,16.26,14.53-4.62,67.37-40.89,67.37-40.89l1.59-5s-6.82-7.58-21.21-1.89Z"/>
    <g>
      <path class="cls-1" d="M1150.34,472.52c-7.21.87-24.42-1.51-28.88-3.83-2.61-3.38-2.42-7.27-2.42-7.27.06-.97.34-2.05.8-3.19,5.18-.7,11.56-1.54,19.46-2.55,37.69-4.84,24.66-29.82,24.66-29.82-3-5.09-16.89-23.09-52.18,4.48,0,0-32.93,26.01-15.69,53.52,0,0,.43.6,1.16,1.22,0,0,2.64,2.7,8.2,3.78.12.02,9.92,1.71,10.04,1.73,9.75.56,32.52,3.51,46.46-2.95M1147.45,429.97c7.14,2.58,1.45,8.44-6.21,11.29-8.04,2.99-15.58,3.73-15.58,3.73,0,0,14.65-17.59,21.79-15.01Z"/>
      <path class="cls-1" d="M1118.42,464.02s17.61-4.29,34.14-11.64c16.54-7.35-50.37,1.68-50.37,1.68l16.23,9.95Z"/>
    </g>
    <path class="cls-1" d="M530.66,461.57s14.17,14.06,25.5,5.89c11.32-8.16,21.49-26.92,21.49-26.92l-10.75,31.34-17.18,8.84-20.91-3.09,1.84-16.06Z"/>
    <path class="cls-1" d="M549.99,478.65s-41.65-38.64-55.37-45.3l-6.69,17.31c19.58,15.84,29.94,23.24,39.1,30.37h0c.17.13.4.31.66.51.8.62,1.59,1.25,2.38,1.88,2.87,2.26,6.58,5.17,7.21,5.66,8.41,5.2,18.06.58,34.66-21.79l-21.95,11.36Z"/>
  </g>
</svg>